Coordinates
version=1
nRows=8
nColumns=46
inDegrees=yes

Units are S.I. units (second, meters, Newtons, ...)
Angles are in degrees.

endheader
time	pelvis_tilt	pelvis_list	pelvis_rotation	pelvis_tx	pelvis_ty	pelvis_tz	bb_angle	bb_tx	bb_ty	bb_tz	hip_flexion_r	hip_adduction_r	hip_rotation_r	knee_angle_r	knee_angle_r_beta	ankle_angle_r	subtalar_angle_r	mtp_angle_r	crank_angle_r	hip_flexion_l	hip_adduction_l	hip_rotation_l	knee_angle_l	knee_angle_l_beta	ankle_angle_l	subtalar_angle_l	mtp_angle_l	crank_angle_l	lumbar_extension	lumbar_bending	lumbar_rotation	arm_flex_r	arm_add_r	arm_rot_r	elbow_flex_r	pro_sup_r	wrist_flex_r	wrist_dev_r	arm_flex_l	arm_add_l	arm_rot_l	elbow_flex_l	pro_sup_l	wrist_flex_l	wrist_dev_l
      2.50000000	    -19.90594179	     -3.66816121	      0.46660052	      0.04054917	      1.09255934	     -0.27522349	      0.00000000	      0.50000000	      0.00000000	      0.25000000	     82.91120314	     -4.16093527	     -2.70980691	     78.91726827	      1.37736617	      9.48193719	     -6.74273805	      0.00000000	      0.00000000	     56.80872528	     -9.91371361	      0.28949929	     73.40649669	      1.28118506	     10.98458877	     -3.04250107	      0.00000000	      0.00000000	    -47.33320240	      1.79510116	      5.27993375	     89.75153799	     -8.29419730	     34.08190789	     29.50245084	     23.70751989	      0.00000000	      0.00000000	     89.76698723	     -3.34796963	     13.23594125	     53.05921526	     26.25127599	      0.00000000	      0.00000000
      2.50500000	    -19.90545934	     -3.70326154	      0.50275843	      0.04054282	      1.09259252	     -0.27525583	      0.00000000	      0.50000000	      0.00000000	      0.25000000	     82.90292651	     -4.18273485	     -2.73799354	     78.92493836	      1.37750004	      9.54765812	     -6.73457892	      0.00000000	      0.00000000	     56.80212589	     -9.90805071	      0.33615402	     73.35949644	      1.28036475	     10.96111113	     -3.04016240	      0.00000000	      0.00000000	    -47.34402917	      1.84256358	      5.29101134	     89.75162535	     -8.31468934	     34.24447753	     29.86480873	     21.58089780	      0.00000000	      0.00000000	     89.76697409	     -3.32728753	     13.17068007	     53.46899462	     24.21329566	      0.00000000	      0.00000000
      2.51000000	    -19.91563701	     -3.69732430	      0.48682143	      0.04055376	      1.09256699	     -0.27525373	      0.00000000	      0.50000000	      0.00000000	      0.25000000	     82.92632668	     -4.16775393	     -2.72654957	     78.94740518	      1.37789216	      9.55032997	     -6.75994829	      0.00000000	      0.00000000	     56.79487941	     -9.91209912	      0.32428208	     73.33340458	      1.27990936	     10.95469129	     -3.06543856	      0.00000000	      0.00000000	    -47.33266310	      1.84569218	      5.28416948	     89.75003981	     -8.07819706	     33.34985841	     29.53446105	     23.18986360	      0.00000000	      0.00000000	     89.76787504	     -3.35643117	     13.07979015	     53.16010511	     25.68489661	      0.00000000	      0.00000000
      2.51500000	    -19.91811046	     -3.71395473	      0.47366683	      0.04058613	      1.09257083	     -0.27523430	      0.00000000	      0.50000000	      0.00000000	      0.25000000	     82.93734814	     -4.14949266	     -2.73795323	     78.96705683	      1.37823514	      9.54327441	     -6.74080091	      0.00000000	      0.00000000	     56.78861580	     -9.93939216	      0.31746240	     73.31627777	      1.27961044	     10.96934830	     -3.04148625	      0.00000000	      0.00000000	    -47.34011951	      1.84257288	      5.38155898	     89.74705969	     -8.04402478	     32.56706529	     29.32266565	     24.68590930	      0.00000000	      0.00000000	     89.76952760	     -3.26462740	     13.06844941	     52.82169948	     27.12262994	      0.00000000	      0.00000000
      2.52000000	    -19.91004929	     -3.67641594	      0.43902763	      0.04061867	      1.09255801	     -0.27520769	      0.00000000	      0.50000000	      0.00000000	      0.25000000	     82.95477818	     -4.12455192	     -2.69167453	     78.99607840	      1.37874166	      9.54373509	     -6.75111407	      0.00000000	      0.00000000	     56.74684445	     -9.94138559	      0.27139655	     73.29281425	      1.27920093	     10.99831830	     -3.01164044	      0.00000000	      0.00000000	    -47.33482271	      1.77070917	      5.35529513	     89.75072728	     -8.44479700	     34.30830714	     29.46060245	     24.21481783	      0.00000000	      0.00000000	     89.76823885	     -3.33920488	     13.24628747	     52.95457486	     26.73829874	      0.00000000	      0.00000000
      2.52500000	    -19.95176441	     -3.70649636	      0.47083018	      0.04060408	      1.09242409	     -0.27528928	      0.00000000	      0.50000000	      0.00000000	      0.25000000	     83.02431421	     -4.16409135	     -2.72103130	     79.03815211	      1.37947599	      9.48694337	     -6.71414719	      0.00000000	      0.00000000	     56.79969026	     -9.92362231	      0.30935853	     73.29411033	      1.27922355	     11.01181897	     -3.05736687	      0.00000000	      0.00000000	    -47.27318696	      1.84525043	      5.36880788	     89.75163009	     -8.37718510	     34.14550100	     29.37582090	     24.25918475	      0.00000000	      0.00000000	     89.76732290	     -3.33499601	     13.24647085	     52.88607909	     26.85870606	      0.00000000	      0.00000000
      2.53000000	    -19.90307269	     -3.68087887	      0.45054797	      0.04062689	      1.09253646	     -0.27522808	      0.00000000	      0.50000000	      0.00000000	      0.25000000	     82.98196052	     -4.13642639	     -2.68981569	     79.05103956	      1.37970092	      9.51963257	     -6.76026071	      0.00000000	      0.00000000	     56.72309933	     -9.92821447	      0.27095523	     73.25612031	      1.27856050	     10.97901798	     -3.08030568	      0.00000000	      0.00000000	    -47.34178229	      1.80495008	      5.26188363	     89.75081149	     -8.05646527	     33.39815355	     29.17506080	     24.93594010	      0.00000000	      0.00000000	     89.76763916	     -3.39620893	     12.98666050	     52.83785711	     27.57073644	      0.00000000	      0.00000000
      2.53500000	    -19.89107642	     -3.67372916	      0.43448262	      0.04064620	      1.09253048	     -0.27522617	      0.00000000	      0.50000000	      0.00000000	      0.25000000	     82.99431656	     -4.12773719	     -2.68448363	     79.08663540	      1.38032218	      9.50739623	     -6.74652480	      0.00000000	      0.00000000	     56.69763429	     -9.93530581	      0.26401330	     73.24433074	      1.27835473	     11.02117266	     -3.01453444	      0.00000000	      0.00000000	    -47.34370421	      1.78086703	      5.29569829	     89.75262884	     -8.29988731	     34.23884769	     29.29770501	     24.43924566	      0.00000000	      0.00000000	     89.76705781	     -3.39573782	     13.15953164	     52.92984868	     27.13128369	      0.00000000	      0.00000000
